<?xml version="1.0" encoding="utf-8"?>
<!-- Generator: Adobe Illustrator 25.2.1, SVG Export Plug-In . SVG Version: 6.00 Build 0)  -->
<svg version="1.1" id="Layer_1" xmlns="http://www.w3.org/2000/svg" width="32" height="32" xmlns:xlink="http://www.w3.org/1999/xlink" x="0px" y="0px"
	 viewBox="0 0 32 32" style="enable-background:new 0 0 32 32;" xml:space="preserve">
<style type="text/css">
	.st0{fill:url(#SVGID_1_);}
	.st1{fill:url(#SVGID_2_);}
	.st2{fill:#654C9F;}
</style>
<g id="Edges">
</g>
<g id="Symbol">
	<g>
		
			<radialGradient id="SVGID_1_" cx="30.828" cy="369.649" r="45.5375" gradientTransform="matrix(0.9986 -5.233596e-02 -4.448556e-02 -0.8488 -13.5159 344.2302)" gradientUnits="userSpaceOnUse">
			<stop  offset="0" style="stop-color:#FED576"/>
			<stop  offset="0.2634" style="stop-color:#F47133"/>
			<stop  offset="0.6091" style="stop-color:#BC3081"/>
			<stop  offset="1" style="stop-color:#4C63D2"/>
		</radialGradient>
		<path class="st0" d="M5.7,1.1C4.6,1.5,3.8,2,2.9,2.9C2,3.8,1.5,4.6,1.1,5.7c-0.4,1-0.7,2.1-0.7,3.8S0.3,11.7,0.3,16s0,4.8,0.1,6.5
			c0.1,1.7,0.3,2.8,0.7,3.8c0.4,1,0.9,1.9,1.8,2.8c0.9,0.9,1.8,1.4,2.8,1.8c1,0.4,2.1,0.7,3.8,0.7c1.7,0.1,2.2,0.1,6.5,0.1
			s4.8,0,6.5-0.1c1.7-0.1,2.8-0.3,3.8-0.7c1-0.4,1.9-0.9,2.8-1.8c0.9-0.9,1.4-1.8,1.8-2.8c0.4-1,0.7-2.1,0.7-3.8
			c0.1-1.7,0.1-2.2,0.1-6.5s0-4.8-0.1-6.5s-0.3-2.8-0.7-3.8c-0.4-1-0.9-1.9-1.8-2.8c-0.9-0.9-1.8-1.4-2.8-1.8
			c-1-0.4-2.1-0.7-3.8-0.7c-1.7-0.1-2.2-0.1-6.5-0.1s-4.8,0-6.5,0.1C7.8,0.4,6.7,0.7,5.7,1.1z M22.4,3.2c1.5,0.1,2.4,0.3,2.9,0.5
			C26,4,26.5,4.3,27.1,4.9C27.7,5.4,28,6,28.3,6.7c0.2,0.6,0.5,1.4,0.5,2.9c0.1,1.7,0.1,2.2,0.1,6.4s0,4.7-0.1,6.4
			c-0.1,1.5-0.3,2.4-0.5,2.9c-0.3,0.7-0.6,1.3-1.2,1.8c-0.6,0.6-1.1,0.9-1.8,1.2c-0.6,0.2-1.4,0.5-2.9,0.5c-1.7,0.1-2.2,0.1-6.4,0.1
			s-4.7,0-6.4-0.1c-1.5-0.1-2.4-0.3-2.9-0.5C6,28,5.5,27.7,4.9,27.1C4.3,26.5,4,26,3.7,25.3c-0.2-0.6-0.5-1.4-0.5-2.9
			c-0.1-1.7-0.1-2.2-0.1-6.4s0-4.7,0.1-6.4c0.1-1.5,0.3-2.4,0.5-2.9C4,6,4.3,5.4,4.9,4.9S6,4,6.7,3.7c0.6-0.2,1.4-0.5,2.9-0.5
			c1.7-0.1,2.2-0.1,6.4-0.1S20.7,3.1,22.4,3.2z"/>
		
			<radialGradient id="SVGID_2_" cx="15.962" cy="153.4938" r="23.3841" gradientTransform="matrix(0.9986 -5.233596e-02 -4.448556e-02 -0.8488 -0.9034 153.7234)" gradientUnits="userSpaceOnUse">
			<stop  offset="0" style="stop-color:#FED576"/>
			<stop  offset="0.2634" style="stop-color:#F47133"/>
			<stop  offset="0.6091" style="stop-color:#BC3081"/>
			<stop  offset="1" style="stop-color:#4C63D2"/>
		</radialGradient>
		<path class="st1" d="M7.9,16c0,4.5,3.6,8.1,8.1,8.1s8.1-3.6,8.1-8.1S20.5,7.9,16,7.9S7.9,11.5,7.9,16z M21.2,16
			c0,2.9-2.3,5.2-5.2,5.2s-5.2-2.3-5.2-5.2s2.3-5.2,5.2-5.2S21.2,13.1,21.2,16z"/>
		<circle class="st2" cx="24.4" cy="7.6" r="1.9"/>
	</g>
</g>
</svg>
